<svg id="visual" viewBox="0 0 2100 3100" width="2100" height="3100" xmlns="http://www.w3.org/2000/svg" xmlns:xlink="http://www.w3.org/1999/xlink" version="1.1"><rect x="0" y="0" width="2100" height="3100" fill="#fff"></rect><defs><linearGradient id="grad1_0" x1="0%" y1="100%" x2="100%" y2="0%"><stop offset="30%" stop-color="#c4adf3" stop-opacity="1"></stop><stop offset="70%" stop-color="#c4adf3" stop-opacity="1"></stop></linearGradient></defs><defs><linearGradient id="grad1_1" x1="0%" y1="100%" x2="100%" y2="0%"><stop offset="30%" stop-color="#c4adf3" stop-opacity="1"></stop><stop offset="70%" stop-color="#e2d5f9" stop-opacity="1"></stop></linearGradient></defs><defs><linearGradient id="grad1_2" x1="0%" y1="100%" x2="100%" y2="0%"><stop offset="30%" stop-color="#ffffff" stop-opacity="1"></stop><stop offset="70%" stop-color="#e2d5f9" stop-opacity="1"></stop></linearGradient></defs><defs><linearGradient id="grad2_0" x1="0%" y1="100%" x2="100%" y2="0%"><stop offset="30%" stop-color="#c4adf3" stop-opacity="1"></stop><stop offset="70%" stop-color="#c4adf3" stop-opacity="1"></stop></linearGradient></defs><defs><linearGradient id="grad2_1" x1="0%" y1="100%" x2="100%" y2="0%"><stop offset="30%" stop-color="#e2d5f9" stop-opacity="1"></stop><stop offset="70%" stop-color="#c4adf3" stop-opacity="1"></stop></linearGradient></defs><defs><linearGradient id="grad2_2" x1="0%" y1="100%" x2="100%" y2="0%"><stop offset="30%" stop-color="#e2d5f9" stop-opacity="1"></stop><stop offset="70%" stop-color="#ffffff" stop-opacity="1"></stop></linearGradient></defs><g transform="translate(2100, 3100)"><path d="M-1684.9 0C-1588.1 -182.8 -1491.3 -365.6 -1431.1 -592.8C-1370.8 -820 -1347.2 -1091.6 -1191.4 -1191.4C-1035.7 -1291.3 -747.9 -1219.5 -527.3 -1273.1C-306.8 -1326.7 -153.4 -1505.8 0 -1684.9L0 0Z" fill="#f1eafc"></path><path d="M-1123.3 0C-1058.8 -121.9 -994.2 -243.7 -954.1 -395.2C-913.9 -546.6 -898.1 -727.7 -794.3 -794.3C-690.5 -860.9 -498.6 -813 -351.6 -848.7C-204.5 -884.5 -102.3 -1003.9 0 -1123.3L0 0Z" fill="#d3c1f6"></path><path d="M-561.6 0C-529.4 -60.9 -497.1 -121.9 -477 -197.6C-456.9 -273.3 -449.1 -363.9 -397.1 -397.1C-345.2 -430.4 -249.3 -406.5 -175.8 -424.4C-102.3 -442.2 -51.1 -501.9 0 -561.6L0 0Z" fill="#c4adf3"></path></g><g transform="translate(0, 0)"><path d="M1684.9 0C1623.8 200.5 1562.6 400.9 1494.8 619.2C1427.1 837.4 1352.9 1073.4 1191.4 1191.4C1030 1309.4 781.4 1309.4 568.3 1372C355.2 1434.5 177.6 1559.7 0 1684.9L0 0Z" fill="#f1eafc"></path><path d="M1123.3 0C1082.5 133.6 1041.7 267.3 996.6 412.8C951.4 558.3 901.9 715.6 794.3 794.3C686.7 873 520.9 872.9 378.9 914.6C236.8 956.4 118.4 1039.8 0 1123.3L0 0Z" fill="#d3c1f6"></path><path d="M561.6 0C541.3 66.8 520.9 133.6 498.3 206.4C475.7 279.1 451 357.8 397.1 397.1C343.3 436.5 260.5 436.5 189.4 457.3C118.4 478.2 59.2 519.9 0 561.6L0 0Z" fill="#c4adf3"></path></g></svg>