<svg xmlns="http://www.w3.org/2000/svg" version="1.1" xmlns:xlink="http://www.w3.org/1999/xlink" xmlns:svgjs="http://svgjs.com/svgjs" width="2048" height="1080" preserveAspectRatio="none" viewBox="0 0 2048 1080"><g clip-path="url(&quot;#SvgjsClipPath1177&quot;)" fill="none"><circle r="180" cx="5.11" cy="72.15" stroke="#37b9f1" stroke-opacity="1" stroke-width="2"></circle><circle r="180" cx="690.15" cy="789.78" stroke="#37b9f1" stroke-opacity="1" stroke-width="2"></circle><circle r="352.725" cx="1814.7" cy="290.95" stroke="#37b9f1" stroke-opacity="1" stroke-width="2"></circle><circle r="277.86" cx="1361.81" cy="113.33" stroke="#37b9f1" stroke-opacity="1" stroke-width="2"></circle><circle r="104.17" cx="1509.45" cy="1064.11" stroke="#37b9f1" stroke-opacity="1" stroke-width="2"></circle><circle r="311.735" cx="1447.61" cy="1040.69" stroke="#37b9f1" stroke-opacity="1" stroke-width="2"></circle><circle r="204.34" cx="608.35" cy="458.62" stroke="#37b9f1" stroke-opacity="1" stroke-width="2"></circle><circle r="198.555" cx="435.36" cy="525.85" stroke="#37b9f1" stroke-opacity="1" stroke-width="2"></circle><circle r="217.34" cx="1496.42" cy="586.92" stroke="#37b9f1" stroke-opacity="1" stroke-width="2"></circle><circle r="138.53" cx="604.79" cy="939.28" stroke="#37b9f1" stroke-opacity="1" stroke-width="2"></circle><circle r="292.65" cx="9.02" cy="131.16" stroke="#37b9f1" stroke-opacity="1" stroke-width="2"></circle><circle r="221.975" cx="236.89" cy="600.58" stroke="#37b9f1" stroke-opacity="1" stroke-width="2"></circle><circle r="258.65" cx="264.51" cy="1003.93" stroke="#37b9f1" stroke-opacity="1" stroke-width="2"></circle><circle r="353.37" cx="2003.41" cy="76.31" stroke="#37b9f1" stroke-opacity="1" stroke-width="2"></circle><circle r="229.05" cx="1846.6" cy="786.54" stroke="#37b9f1" stroke-opacity="1" stroke-width="2"></circle><circle r="173.44" cx="1800.42" cy="932.5" stroke="#37b9f1" stroke-opacity="1" stroke-width="2"></circle><circle r="345.64" cx="1900.07" cy="222.52" stroke="#37b9f1" stroke-opacity="1" stroke-width="2"></circle><circle r="279.455" cx="1261.46" cy="1046.47" stroke="#37b9f1" stroke-opacity="1" stroke-width="2"></circle><circle r="262.46" cx="1655.13" cy="350.61" stroke="#37b9f1" stroke-opacity="1" stroke-width="2"></circle><circle r="248.32" cx="1403.92" cy="1027.94" stroke="#37b9f1" stroke-opacity="1" stroke-width="2"></circle><circle r="332.775" cx="1990.08" cy="966.45" stroke="#37b9f1" stroke-opacity="1" stroke-width="2"></circle><circle r="288.915" cx="1030.51" cy="18.51" stroke="#37b9f1" stroke-opacity="1" stroke-width="2"></circle><circle r="173.83" cx="1171.65" cy="58.1" stroke="#37b9f1" stroke-opacity="1" stroke-width="2"></circle><circle r="356.59" cx="457.78" cy="100.79" stroke="#37b9f1" stroke-opacity="1" stroke-width="2"></circle><circle r="134.705" cx="761.91" cy="559.24" stroke="#37b9f1" stroke-opacity="1" stroke-width="2"></circle><circle r="105.865" cx="1276.29" cy="520.21" stroke="#37b9f1" stroke-opacity="1" stroke-width="2"></circle><circle r="336.815" cx="1553.33" cy="461.52" stroke="#37b9f1" stroke-opacity="1" stroke-width="2"></circle><circle r="105.56" cx="893.86" cy="103.07" stroke="#37b9f1" stroke-opacity="1" stroke-width="2"></circle><circle r="92.495" cx="1462.9" cy="640.6" stroke="#37b9f1" stroke-opacity="1" stroke-width="2"></circle><circle r="333.045" cx="378.12" cy="240.3" stroke="#37b9f1" stroke-opacity="1" stroke-width="2"></circle></g><defs><clipPath id="SvgjsClipPath1177"><rect width="2048" height="1080" x="0" y="0"></rect></clipPath></defs></svg>